<?xml version="1.0" encoding="iso-8859-1"?>
<!-- Uploaded to: SVG Repo, www.svgrepo.com, Generator: SVG Repo Mixer Tools -->
<svg height="15px" width="15px" version="1.1" id="Layer_1" xmlns="http://www.w3.org/2000/svg" xmlns:xlink="http://www.w3.org/1999/xlink" 
	 viewBox="0 0 512.001 512.001" xml:space="preserve">
<path style="fill:#5DE290;" d="M505.182,113.795l-65.836-65.834c-9.089-9.09-23.827-9.089-32.917,0L256,198.392l-84.594,84.594
	l-65.839-65.839c-4.365-4.365-10.285-6.817-16.459-6.817c-6.173,0-12.094,2.452-16.458,6.818L6.818,282.988
	c-9.09,9.09-9.09,23.827,0,32.917l148.124,148.133c4.363,4.365,10.285,6.817,16.458,6.817c6.174,0,12.094-2.453,16.458-6.817
	l68.141-68.141l249.184-249.184c4.365-4.365,6.818-10.285,6.818-16.458C511.999,124.081,509.547,118.16,505.182,113.795z"/>
<path style="fill:#5DE290;" d="M154.942,464.039c4.363,4.365,10.285,6.818,16.458,6.818c6.174,0,12.094-2.453,16.458-6.818
	l68.141-68.141V198.394l-84.594,84.594l-65.839-65.839c-4.365-4.365-10.285-6.817-16.458-6.817c-6.173,0-12.094,2.452-16.458,6.818
	L6.818,282.988c-9.09,9.09-9.09,23.827,0,32.917L154.942,464.039z"/>
</svg>