<?xml version="1.0" encoding="iso-8859-1"?>
<!-- Uploaded to: SVG Repo, www.svgrepo.com, Generator: SVG Repo Mixer Tools -->
<svg height="15px" width="15px" version="1.1" id="Layer_1" xmlns="http://www.w3.org/2000/svg" xmlns:xlink="http://www.w3.org/1999/xlink" 
	 viewBox="0 0 512 512" xml:space="preserve">
<path style="fill:#E34F4F;" d="M488.727,186.182H256H23.273C10.42,186.182,0,196.6,0,209.455v93.091
	c0,12.853,10.42,23.273,23.273,23.273H256h232.727c12.853,0,23.273-10.42,23.273-23.273v-93.091
	C512,196.6,501.58,186.182,488.727,186.182z"/>
<path style="fill:#E34F4F;" d="M488.727,186.182H256H23.273C10.42,186.182,0,196.6,0,209.455v93.091
	c0,12.853,10.42,23.273,23.273,23.273H256h232.727c12.853,0,23.273-10.42,23.273-23.273v-93.091
	C512,196.6,501.58,186.182,488.727,186.182z"/>
</svg>