<svg xmlns="http://www.w3.org/2000/svg" width="111.6" height="39.353" viewBox="0 0 111.6 39.353">
  <g id="Logo_sizebay" data-name="Logo sizebay" transform="translate(-29.953 -56.249)">
    <path id="Caminho_1" data-name="Caminho 1" d="M43.441,79.3a5.355,5.355,0,0,0,2.336-.382,1.349,1.349,0,0,0,.734-1.307,1.69,1.69,0,0,0-.782-1.421,11.747,11.747,0,0,0-2.588-1.225,19.943,19.943,0,0,1-2.022-.841,6.877,6.877,0,0,1-1.584-1.04,4.234,4.234,0,0,1-1.052-1.439,4.961,4.961,0,0,1-.385-2.065,4.492,4.492,0,0,1,1.771-3.754,7.664,7.664,0,0,1,4.808-1.371,15.118,15.118,0,0,1,2.938.28,14.679,14.679,0,0,1,2.1.546l-.735,3.24a9.8,9.8,0,0,0-1.7-.544,10.328,10.328,0,0,0-2.4-.249,4.251,4.251,0,0,0-2,.412,1.354,1.354,0,0,0-.767,1.272,1.807,1.807,0,0,0,.15.763,1.6,1.6,0,0,0,.519.609,5.272,5.272,0,0,0,.967.562,15.29,15.29,0,0,0,1.468.581,22.324,22.324,0,0,1,2.438,1.039A6.646,6.646,0,0,1,49.3,74.126a3.977,3.977,0,0,1,.954,1.472,5.819,5.819,0,0,1,.3,1.983A4.26,4.26,0,0,1,48.7,81.334a9.307,9.307,0,0,1-5.293,1.274,14.553,14.553,0,0,1-3.705-.382,19.586,19.586,0,0,1-1.969-.609l.7-3.34a18.109,18.109,0,0,0,2.153.694,11.248,11.248,0,0,0,2.856.332" transform="translate(4.014 4.237)" fill="#fff"/>
    <path id="Caminho_2" data-name="Caminho 2" d="M52,62.25a2.323,2.323,0,0,0-.737-1.819,2.511,2.511,0,0,0-1.736-.66,2.556,2.556,0,0,0-1.769.66,2.124,2.124,0,0,0-.511.714l0,.092,0-.092a2.643,2.643,0,0,0-.223,1.105,2.279,2.279,0,0,0,.734,1.784,2.553,2.553,0,0,0,1.769.664,2.508,2.508,0,0,0,1.736-.664A2.276,2.276,0,0,0,52,62.25" transform="translate(8.811 1.818)" fill="#fff"/>
    <rect id="Retângulo_2" data-name="Retângulo 2" width="4.039" height="17.288" transform="translate(56.335 69.125)" fill="#fff"/>
    <path id="Caminho_3" data-name="Caminho 3" d="M64.789,67.551c-.446.462-1.032,1.114-1.754,1.948s-1.5,1.771-2.32,2.8-1.654,2.094-2.488,3.205-1.587,2.177-2.256,3.191H64.99v3.337H51.1V79.55a31.11,31.11,0,0,1,1.834-2.878q1.105-1.551,2.273-3.122t2.32-2.99q1.153-1.421,2.054-2.48H51.533V64.742H64.789Z" transform="translate(10.913 4.383)" fill="#fff"/>
    <path id="Caminho_4" data-name="Caminho 4" d="M72.092,71.829a5.186,5.186,0,0,0-.235-1.569,3.772,3.772,0,0,0-.684-1.289,3.213,3.213,0,0,0-1.1-.86,3.514,3.514,0,0,0-1.552-.315,3.624,3.624,0,0,0-1.634.347,3.718,3.718,0,0,0-1.187.91,4.1,4.1,0,0,0-.75,1.29,6.833,6.833,0,0,0-.37,1.486ZM60.37,73.614a10.775,10.775,0,0,1,.685-4,8.436,8.436,0,0,1,1.819-2.859,7.578,7.578,0,0,1,2.606-1.718,8.144,8.144,0,0,1,3-.579,7.24,7.24,0,0,1,5.628,2.215q2.019,2.215,2.021,6.613c0,.217-.008.465-.018.743s-.029.523-.05.743H64.545a4.536,4.536,0,0,0,1.486,3.222,5.678,5.678,0,0,0,3.825,1.142,12.745,12.745,0,0,0,2.688-.264,11.285,11.285,0,0,0,1.921-.564L75,81.581a6.837,6.837,0,0,1-.919.349,13.26,13.26,0,0,1-1.336.329c-.5.1-1.043.182-1.619.247a15.469,15.469,0,0,1-1.769.1,10.833,10.833,0,0,1-4.007-.678,7.487,7.487,0,0,1-2.806-1.886A7.711,7.711,0,0,1,60.907,77.2a11.449,11.449,0,0,1-.537-3.587" transform="translate(15.698 4.237)" fill="#fff"/>
    <path id="Caminho_5" data-name="Caminho 5" d="M83.829,76.181a7.041,7.041,0,0,0-1.017-4.03,3.625,3.625,0,0,0-3.223-1.487,6.234,6.234,0,0,0-3.307.958v9.95c.29.065.664.126,1.119.182a14.256,14.256,0,0,0,1.654.082,4.335,4.335,0,0,0,3.505-1.5,6.235,6.235,0,0,0,1.269-4.151m4.14.068A10.775,10.775,0,0,1,87.354,80a8.143,8.143,0,0,1-1.771,2.859A7.67,7.67,0,0,1,82.8,84.679a10.307,10.307,0,0,1-3.707.629,25.072,25.072,0,0,1-6.845-.96V59.886l4.039-.661v8.959A9.548,9.548,0,0,1,78,67.523a8.708,8.708,0,0,1,5.543.347A6.463,6.463,0,0,1,85.967,69.7a8.416,8.416,0,0,1,1.484,2.859,12.373,12.373,0,0,1,.519,3.686" transform="translate(21.826 1.536)" fill="#fff"/>
    <path id="Caminho_6" data-name="Caminho 6" d="M90.591,79.366a15.116,15.116,0,0,0,2.838-.2v-4.43a7.94,7.94,0,0,0-.969-.2,9.231,9.231,0,0,0-1.4-.1,9.588,9.588,0,0,0-1.352.1,4.265,4.265,0,0,0-1.234.364,2.271,2.271,0,0,0-.887.741,2.509,2.509,0,0,0,.57,3.175,4.688,4.688,0,0,0,2.438.546m-.335-14.908a9.963,9.963,0,0,1,3.375.5,5.374,5.374,0,0,1,2.185,1.387,5.208,5.208,0,0,1,1.17,2.165,10.514,10.514,0,0,1,.35,2.794V81.778q-.935.2-2.82.481a29.307,29.307,0,0,1-4.26.28,12.888,12.888,0,0,1-2.87-.3,6.029,6.029,0,0,1-2.221-.958,4.463,4.463,0,0,1-1.434-1.719,5.88,5.88,0,0,1-.52-2.612,5.038,5.038,0,0,1,.582-2.512,4.776,4.776,0,0,1,1.589-1.666,6.782,6.782,0,0,1,2.321-.926,13.036,13.036,0,0,1,4.157-.2,12.889,12.889,0,0,1,1.569.284v-.664a5.153,5.153,0,0,0-.167-1.322,2.731,2.731,0,0,0-.585-1.105,2.7,2.7,0,0,0-1.1-.744,4.822,4.822,0,0,0-1.719-.264,15.286,15.286,0,0,0-2.57.2,11,11,0,0,0-1.9.464l-.5-3.24a15.883,15.883,0,0,1,2.238-.528,17.635,17.635,0,0,1,3.14-.267" transform="translate(27.486 4.237)" fill="#fff"/>
    <path id="Caminho_7" data-name="Caminho 7" d="M109.3,64.742a125.31,125.31,0,0,1-6.266,17.849,17.984,17.984,0,0,1-1.372,2.546,7.554,7.554,0,0,1-1.571,1.751,5.608,5.608,0,0,1-1.939,1.01,9.445,9.445,0,0,1-4.33.115,6.46,6.46,0,0,1-1.386-.429l.734-3.207a6.687,6.687,0,0,0,2.382.462,3.728,3.728,0,0,0,2.465-.744,6.106,6.106,0,0,0,1.56-2.3q-1.91-3.636-3.674-7.934a86.912,86.912,0,0,1-3.134-9.124h4.306q.339,1.39.823,3.006t1.057,3.29q.566,1.669,1.205,3.322t1.274,3.075q1.064-2.94,2-6.265t1.7-6.428Z" transform="translate(32.25 4.383)" fill="#fff"/>
    <path id="Caminho_8" data-name="Caminho 8" d="M34.458,63.37a1.737,1.737,0,0,1,0-2.468,1.777,1.777,0,0,1,2.494,0,1.731,1.731,0,0,1,0,2.468,1.817,1.817,0,0,1-2.492,0m3.576-3.549a3.326,3.326,0,0,0-4.668.006,3.243,3.243,0,0,0,.006,4.621,3.324,3.324,0,0,0,4.667-.006,3.245,3.245,0,0,0,0-4.621" transform="translate(1.264 1.351)" fill="#fff"/>
    <path id="Caminho_9" data-name="Caminho 9" d="M49.908,95.6a3.645,3.645,0,0,1-2.57-1.045L31.725,79.341A6.509,6.509,0,0,1,29.954,75L30.3,60.4a3.8,3.8,0,0,1,3.63-3.634l14.9-.512a6.65,6.65,0,0,1,4.254,1.707l3.223,3.135a4.066,4.066,0,0,0-.561.447,3.254,3.254,0,0,0-.476.649L52,59.039a5.115,5.115,0,0,0-3.167-1.267l-.091,0-14.759.509a2.245,2.245,0,0,0-2.147,2.15l-.349,14.6A5.074,5.074,0,0,0,32.8,78.257L48.418,93.474a2.187,2.187,0,0,0,3-.014l5.755-5.693,2.127-.006-6.789,6.768a3.645,3.645,0,0,1-2.6,1.073" transform="translate(0 0)" fill="#fff"/>
  </g>
</svg>
