<svg id="Layer_1" data-name="Layer 1" xmlns="http://www.w3.org/2000/svg" viewBox="0 0 940.81 335.12"><defs><style>.cls-1{fill:#dcdcdc;}</style></defs><path class="cls-1" d="M344.72,130.13" transform="translate(-110.32 -109.69)"/><path class="cls-1" d="M257.86,342.07c9,0,15.58-1.09,19.7-3.24s6.18-5.88,6.18-11.13q0-7.31-6.59-12.09c-4.42-3.2-11.71-6.67-21.81-10.44A168.92,168.92,0,0,1,238.28,298a59.11,59.11,0,0,1-13.36-8.86,36.25,36.25,0,0,1-8.87-12.26q-3.24-7.18-3.23-17.58,0-20.28,14.92-32t40.53-11.67A125.85,125.85,0,0,1,293,218.06a122.32,122.32,0,0,1,17.74,4.65l-6.19,27.58a83.29,83.29,0,0,0-14.36-4.63A86.78,86.78,0,0,0,270,243.54c-6.95,0-12.57,1.18-16.9,3.51a11.57,11.57,0,0,0-6.46,10.84,15.41,15.41,0,0,0,1.27,6.49,13.91,13.91,0,0,0,4.36,5.2,45.61,45.61,0,0,0,8.16,4.78,128.19,128.19,0,0,0,12.38,4.94,190.14,190.14,0,0,1,20.55,8.85A56.17,56.17,0,0,1,307.25,298a33.63,33.63,0,0,1,8,12.53,49.91,49.91,0,0,1,2.54,16.88q0,21.12-15.63,32t-44.62,10.84q-19.41,0-31.23-3.25a161.76,161.76,0,0,1-16.62-5.19l5.92-28.44a152.38,152.38,0,0,0,18.15,5.91A93.51,93.51,0,0,0,257.86,342.07Z" transform="translate(-110.32 -109.69)"/><path class="cls-1" d="M370.46,176.26c0-6.57-2.07-11.72-6.2-15.49a21.09,21.09,0,0,0-14.64-5.61,21.42,21.42,0,0,0-14.91,5.61,17.88,17.88,0,0,0-4.32,6.09c0,.26,0,.52,0,.78,0-.26,0-.52,0-.78a22.75,22.75,0,0,0-1.88,9.4q0,9.57,6.2,15.2a21.41,21.41,0,0,0,14.91,5.65,21.08,21.08,0,0,0,14.64-5.65Q370.46,185.84,370.46,176.26Z" transform="translate(-110.32 -109.69)"/><rect class="cls-1" x="222.4" y="109.64" width="34.05" height="147.22"/><path class="cls-1" d="M496,243.26c-3.75,3.94-8.7,9.49-14.79,16.6s-12.61,15.06-19.56,23.8-13.93,17.83-21,27.29-13.37,18.54-19,27.18h76v28.42H380.59V345.44a264.58,264.58,0,0,1,15.46-24.5q9.31-13.21,19.16-26.58t19.56-25.48q9.72-12.11,17.32-21.11H384.24V219.33H496Z" transform="translate(-110.32 -109.69)"/><path class="cls-1" d="M499.08,293.64q0-19.41,5.77-34.05a71.94,71.94,0,0,1,15.35-24.36,63.94,63.94,0,0,1,22-14.63,68.08,68.08,0,0,1,25.33-4.93q30.42,0,47.45,18.87t17,56.31c0,1.85-.06,4-.15,6.33s-.24,4.45-.42,6.33H534.28q1.4,17.7,12.52,27.43t32.25,9.72a106.24,106.24,0,0,0,22.66-2.25,94.42,94.42,0,0,0,16.19-4.8l4.49,27.88a56.31,56.31,0,0,1-7.74,3,111.33,111.33,0,0,1-11.26,2.81c-4.22.86-8.79,1.54-13.66,2.1a130.53,130.53,0,0,1-14.91.86q-19.43,0-33.79-5.77a62.88,62.88,0,0,1-23.64-16.06,65.55,65.55,0,0,1-13.78-24.2A98.64,98.64,0,0,1,499.08,293.64Zm98.82-15.2a45.07,45.07,0,0,0-2-13.36,32.3,32.3,0,0,0-5.77-11,27.34,27.34,0,0,0-9.3-7.32,29.41,29.41,0,0,0-13.08-2.68,30.55,30.55,0,0,0-13.79,3,31.52,31.52,0,0,0-10,7.75,35.47,35.47,0,0,0-6.33,11,59.9,59.9,0,0,0-3.11,12.66Z" transform="translate(-110.32 -109.69)"/><path class="cls-1" d="M783.41,293.09a92.7,92.7,0,0,1-5.19,32,69.53,69.53,0,0,1-14.93,24.35,64.8,64.8,0,0,1-23.51,15.48q-13.8,5.36-31.24,5.35a199.87,199.87,0,0,1-32.24-2.53,203.62,203.62,0,0,1-25.47-5.63V153.74l34-5.63V224.4a79.73,79.73,0,0,1,14.51-5.64,72.86,72.86,0,0,1,46.72,3,54.51,54.51,0,0,1,20.41,15.63A71.78,71.78,0,0,1,779,261.69,106.68,106.68,0,0,1,783.41,293.09Zm-34.9-.58q0-21.66-8.59-34.33t-27.17-12.67a52.37,52.37,0,0,0-27.87,8.16v84.74a95.33,95.33,0,0,0,9.43,1.55,119.88,119.88,0,0,0,14,.7q18.86,0,29.54-12.81T748.51,292.51Z" transform="translate(-110.32 -109.69)"/><path class="cls-1" d="M850.41,215.67q16.88,0,28.44,4.23t18.43,11.82a44.67,44.67,0,0,1,9.86,18.44,90.75,90.75,0,0,1,3,23.79v89.22q-7.87,1.69-23.77,4.09a245.7,245.7,0,0,1-35.91,2.38,108.43,108.43,0,0,1-24.21-2.52A51,51,0,0,1,807.48,359,38.15,38.15,0,0,1,795.4,344.3q-4.39-9-4.38-22.23,0-12.66,4.9-21.4a40.62,40.62,0,0,1,13.39-14.19,56.86,56.86,0,0,1,19.57-7.88,106.38,106.38,0,0,1,48.28.7v-5.64a43.92,43.92,0,0,0-1.41-11.26,23.55,23.55,0,0,0-4.93-9.42,23,23,0,0,0-9.29-6.34,40.25,40.25,0,0,0-14.5-2.25,128.33,128.33,0,0,0-21.67,1.68,94.08,94.08,0,0,0-16.05,4l-4.23-27.58a132.22,132.22,0,0,1,18.86-4.51A148.16,148.16,0,0,1,850.41,215.67Zm2.82,127q15.75,0,23.93-1.68V303.22a68.72,68.72,0,0,0-8.17-1.69,75.21,75.21,0,0,0-11.84-.86,77.75,77.75,0,0,0-11.39.86,36,36,0,0,0-10.41,3.09,19.1,19.1,0,0,0-7.48,6.33,17.82,17.82,0,0,0-2.8,10.29q0,12.09,7.61,16.74T853.23,342.62Z" transform="translate(-110.32 -109.69)"/><path class="cls-1" d="M1051.13,219.33q-22.76,83.89-52.82,152A153.73,153.73,0,0,1,986.74,393a63.89,63.89,0,0,1-13.24,14.91,47,47,0,0,1-16.35,8.59,78.64,78.64,0,0,1-36.5,1A53.85,53.85,0,0,1,909,413.86l6.18-27.32a55.61,55.61,0,0,0,20.08,3.95c8.87,0,15.78-2.12,20.78-6.34s9.38-10.76,13.15-19.55q-16.11-31-31-67.57a745.17,745.17,0,0,1-26.42-77.7h36.3q2.85,11.83,6.94,25.61t8.9,28q4.79,14.24,10.17,28.29t10.74,26.18q9-25,16.82-53.35t14.3-54.74Z" transform="translate(-110.32 -109.69)"/><path class="cls-1" d="M189.1,151.61a27.85,27.85,0,1,0,8.16,19.68A27.7,27.7,0,0,0,189.1,151.61ZM159,181.83a14.87,14.87,0,1,1,21,0A15.21,15.21,0,0,1,159,181.83Z" transform="translate(-110.32 -109.69)"/><path class="cls-1" d="M278.55,444.82a30.6,30.6,0,0,1-21.67-8.9L125.25,306.33c-8.81-8.72-15.22-24.59-14.92-36.95L113.26,145a32.16,32.16,0,0,1,30.6-30.95l125.59-4.36c12.28,0,27.36,6.11,35.86,14.53l27.17,26.69a35.8,35.8,0,0,0-4.73,3.81,27.9,27.9,0,0,0-4,5.53l-27.52-26.81c-6.12-6-17.85-10.79-26.71-10.79l-.75,0L144.31,127a19,19,0,0,0-18.09,18.3l-2.93,124.38c-.22,8.71,4.85,21.26,11.06,27.41L266,426.69a18.32,18.32,0,0,0,25.27-.12l48.51-48.48,17.93,0-57.23,57.64A30.58,30.58,0,0,1,278.55,444.82Z" transform="translate(-110.32 -109.69)"/></svg>