<?xml version="1.0" encoding="iso-8859-1"?>
<!-- Generator: Adobe Illustrator 18.1.1, SVG Export Plug-In . SVG Version: 6.00 Build 0)  -->
<svg version="1.1" id="Capa_1" xmlns="http://www.w3.org/2000/svg" xmlns:xlink="http://www.w3.org/1999/xlink" x="0px" y="0px"
	 viewBox="0 0 62.993 62.993" style="enable-background:new 0 0 62.993 62.993;" xml:space="preserve">
<g>
	<path style="fill:#848484;" d="M62.58,60.594L41.313,39.329c3.712-4.18,5.988-9.66,5.988-15.677
		c0-13.042-10.609-23.651-23.65-23.651C10.609,0.001,0,10.61,0,23.652c0,13.041,10.609,23.65,23.651,23.65
		c6.016,0,11.497-2.276,15.677-5.988l21.265,21.267c0.273,0.273,0.634,0.411,0.993,0.411c0.36,0,0.721-0.138,0.994-0.411
		C63.13,62.03,63.13,61.143,62.58,60.594z M23.651,44.492c-11.492,0-20.841-9.348-20.841-20.84S12.159,2.811,23.651,2.811
		c11.491,0,20.84,9.349,20.84,20.841c0,5.241-1.958,10.023-5.163,13.689c-0.619,0.706-1.281,1.368-1.987,1.987
		C33.675,42.534,28.892,44.492,23.651,44.492z"/>
</g>
<g>
</g>
<g>
</g>
<g>
</g>
<g>
</g>
<g>
</g>
<g>
</g>
<g>
</g>
<g>
</g>
<g>
</g>
<g>
</g>
<g>
</g>
<g>
</g>
<g>
</g>
<g>
</g>
<g>
</g>
</svg>
