<svg xmlns="http://www.w3.org/2000/svg"  viewBox="0 0 40 40" width="40px" height="40px" baseProfile="basic"><linearGradient id="-2suTD81jP2ew0CFO8L6Qa" x1="31.916" x2="25.088" y1="31.849" y2="26.05" gradientUnits="userSpaceOnUse"><stop offset="0" stop-color="#b2b2b2"/><stop offset=".999"/></linearGradient><polygon fill="url(#-2suTD81jP2ew0CFO8L6Qa)" points="29.976,27 24.451,27.176 33.95,36.778 36.778,33.95"/><path fill="#b2b2b2" d="M24.313,27c-1.788,1.256-3.962,2-6.313,2c-6.075,0-11-4.925-11-11S11.925,7,18,7s11,4.925,11,11	c0,2.659-0.944,5.098-2.515,7h4.776C32.368,22.909,33,20.53,33,18c0-8.284-6.716-15-15-15S3,9.716,3,18c0,8.284,6.716,15,15,15	c4.903,0,9.243-2.363,11.98-6H24.313z"/></svg>